<?xml version="1.0" encoding="UTF-8" standalone="no"?>
<svg
   width="32"
   height="32"
   viewBox="0 0 32 32"
   fill="none"
   version="1.1"
   id="svg3"
   sodipodi:docname="discord.svg"
   inkscape:version="1.3.2 (091e20e, 2023-11-25, custom)"
   xmlns:inkscape="http://www.inkscape.org/namespaces/inkscape"
   xmlns:sodipodi="http://sodipodi.sourceforge.net/DTD/sodipodi-0.dtd"
   xmlns="http://www.w3.org/2000/svg"
   xmlns:svg="http://www.w3.org/2000/svg">
  <defs
     id="defs3" />
  <sodipodi:namedview
     id="namedview3"
     pagecolor="#ffffff"
     bordercolor="#000000"
     borderopacity="0.25"
     inkscape:showpageshadow="2"
     inkscape:pageopacity="0.0"
     inkscape:pagecheckerboard="0"
     inkscape:deskcolor="#d1d1d1"
     inkscape:zoom="25.40625"
     inkscape:cx="18.02706"
     inkscape:cy="17.416974"
     inkscape:window-width="1920"
     inkscape:window-height="1009"
     inkscape:window-x="-8"
     inkscape:window-y="-8"
     inkscape:window-maximized="1"
     inkscape:current-layer="svg3" />
  <path
     d="M 11.416016,3.8144531 C 9.1304679,4.2080827 6.9431717,4.8968853 4.9023437,5.8339844 4.8846738,5.8416044 4.869425,5.8545938 4.859375,5.8710937 0.71084815,12.068878 -0.42469394,18.115443 0.1328125,24.085937 c 0.002523,0.0292 0.0183117,0.05652 0.0410156,0.07422 2.73708328,2.010098 5.38814698,3.230264 7.99023438,4.039063 0.04165,0.0127 0.086781,-0.0028 0.1132813,-0.03711 0.6155293,-0.840599 1.164326,-1.726104 1.6347656,-2.658203 0.02776,-0.0545 9.93e-5,-0.119025 -0.056641,-0.140625 -0.8703092,-0.330099 -1.6989346,-0.734306 -2.4960938,-1.191406 -0.06305,-0.0368 -0.067766,-0.126822 -0.00977,-0.169922 0.1677598,-0.1257 0.3359139,-0.256572 0.4960937,-0.388672 0.02898,-0.0241 0.069446,-0.02887 0.1035156,-0.01367 5.2369853,2.391098 10.9068363,2.391098 16.0820313,0 0.0341,-0.0165 0.07332,-0.01043 0.103516,0.01367 0.160199,0.1321 0.329047,0.262972 0.498046,0.388672 0.058,0.0431 0.05323,0.133122 -0.0098,0.169922 -0.797199,0.466 -1.624495,0.860653 -2.496094,1.189453 -0.0567,0.0216 -0.08249,0.08808 -0.05469,0.142578 0.480499,0.930799 1.028613,1.815651 1.632812,2.65625 0.0252,0.0356 0.07158,0.05176 0.113281,0.03906 2.614698,-0.808799 5.264856,-2.028965 8.001953,-4.039063 0.024,-0.0177 0.03852,-0.04502 0.04102,-0.07422 0.667199,-6.902593 -1.116772,-12.897565 -4.730469,-18.2128901 -0.0089,-0.01776 -0.02332,-0.031443 -0.04102,-0.039063 -2.039498,-0.9358391 -4.226974,-1.6246417 -6.513672,-2.0195313 -0.0417,-0.00762 -0.08407,0.010738 -0.105469,0.048828 -0.2813,0.5002894 -0.592347,1.1530261 -0.810547,1.6660156 -2.459597,-0.3682297 -4.907208,-0.3682297 -7.316406,0 -0.2182,-0.5243995 -0.539766,-1.1657262 -0.822266,-1.6660156 -0.0215,-0.03682 -0.06387,-0.055178 -0.105468,-0.048828 z M 10.693359,14 c 1.614499,0 2.9002,1.459611 2.875,3.224609 0,1.777699 -1.273201,3.22461 -2.875,3.22461 -1.576698,0 -2.8749996,-1.446911 -2.8749996,-3.22461 C 7.8183594,15.446811 9.091461,14 10.693359,14 Z m 10.632813,0 c 1.614498,0 2.9002,1.459611 2.875,3.224609 0,1.777699 -1.260502,3.22461 -2.875,3.22461 -1.576699,0 -2.875,-1.446911 -2.875,-3.22461 0,-1.777798 1.273101,-3.224609 2.875,-3.224609 z"
     style="fill:#ffffff"
     id="path4" />
</svg>
