<svg width="395" height="159" viewBox="0 0 395 159" fill="none" xmlns="http://www.w3.org/2000/svg">
<path d="M355 23H240.333C224.133 23 211 36.133 211 52.3333C211 72.5838 194.584 89 174.333 89H85.5C66.4462 89 51 104.446 51 123.5C51 142.554 66.4462 158 85.5 158H277.5V113.5H355C377.091 113.5 395 95.5914 395 73.5V63C395 40.9086 377.091 23 355 23Z" fill="#3E4148"/>
<path d="M112 49.5C112 34.8645 123.864 23 138.5 23H171.5C186.136 23 198 34.8645 198 49.5C198 64.1355 186.136 76 171.5 76H138.5C123.864 76 112 64.1355 112 49.5Z" fill="#3E4148"/>
<path d="M330 16.5V2L317.5 16L305 2L294 16L281.5 2V16.5V33.5" stroke="#202225"/>
<path d="M287 22L281.5 27.5L276 22L281.5 16.5L287 22Z" fill="#4F545C" stroke="#202225"/>
<path d="M335.5 22L330 16.5L324.5 22L330 27.5L335.5 22Z" fill="#4F545C" stroke="#202225"/>
<path d="M299.5 22L305 27.5L310.5 22L305 16.5L299.5 22Z" fill="#4F545C" stroke="#202225"/>
<path d="M252 112H264V124H252C248.686 124 246 121.314 246 118C246 114.686 248.686 112 252 112Z" fill="#4F545C" stroke="#202225"/>
<path d="M250.5 143.9V137C250.5 132.858 253.858 129.5 258 129.5H272V158H237.25C234.351 158 232 155.649 232 152.75C232 149.851 234.351 147.5 237.25 147.5H246.9C248.888 147.5 250.5 145.888 250.5 143.9Z" fill="#4F545C" stroke="#202225"/>
<path d="M257 131V142C257 150.837 264.163 158 273 158H330.5C341.546 158 350.5 149.046 350.5 138V119C350.5 107.954 341.546 99 330.5 99H289C271.327 99 257 113.327 257 131Z" fill="#72767D" stroke="#202225"/>
<path d="M339 33.5H272C262.059 33.5 254 41.5589 254 51.5V81C254 90.9411 262.059 99 272 99H339C347.837 99 355 91.8366 355 83V49.5C355 40.6634 347.837 33.5 339 33.5Z" fill="#72767D" stroke="#202225"/>
<path d="M262 51.5H280H284H294.5C298.918 51.5 302.5 55.0817 302.5 59.5V67.5C302.5 76.3366 295.337 83.5 286.5 83.5H270C261.163 83.5 254 76.3366 254 67.5V59.5C254 55.0817 257.582 51.5 262 51.5Z" fill="#72767D"/>
<path d="M255 51.5H273H277H287.5C291.918 51.5 295.5 55.0817 295.5 59.5V67.5C295.5 76.3366 288.337 83.5 279.5 83.5H263C254.163 83.5 247 76.3366 247 67.5V59.5C247 55.0817 250.582 51.5 255 51.5Z" fill="#B9BBBE"/>
<path d="M358 140C360 129 365 112.154 376.5 121C383 126 382 137 358 140Z" fill="#72767D" stroke="#202225"/>
<circle cx="315" cy="62.5" r="4" fill="#202225"/>
<path d="M324.5 56.5C322.833 56 319.2 54.3 318 51.5" stroke="#202225" stroke-linecap="round"/>
<path d="M311.5 105V99H331C342.046 99 351 107.954 351 119V138C351 149.046 342.046 158 331 158H287V155.5C287 151.082 290.582 147.5 295 147.5H304.6C306.754 147.5 308.5 145.754 308.5 143.6V140.8C308.5 133.731 314.231 128 321.3 128H322.25C323.493 128 324.5 126.993 324.5 125.75C324.5 124.507 323.493 123.5 322.25 123.5H291C288.791 123.5 287 121.709 287 119.5V117C287 114.791 288.791 113 291 113H303.5C307.918 113 311.5 109.418 311.5 105Z" fill="#4F545C" stroke="#202225"/>
<path d="M355 45.5H339V78.5H355C359.418 78.5 363 74.9183 363 70.5V53.5C363 49.0817 359.418 45.5 355 45.5Z" fill="#72767D"/>
<path d="M339 46H355C359.418 46 363 49.5817 363 54V71C363 75.4183 359.418 79 355 79H339" stroke="#202225"/>
<rect x="253" y="70.5" width="12" height="6" rx="3" fill="#4F545C"/>
<rect x="269" y="70.5" width="12" height="6" rx="3" fill="#4F545C"/>
<path d="M272.5 51.5H254.5C250.082 51.5 246.5 55.0817 246.5 59.5V67.5C246.5 76.3366 253.663 83.5 262.5 83.5H286C294.837 83.5 302 76.3366 302 67.5V59.5C302 55.0817 298.418 51.5 294 51.5H283.5" stroke="#202225" stroke-linecap="round"/>
<path d="M349 51.5H347C345.895 51.5 345 52.3954 345 53.5V70.5C345 71.6046 345.895 72.5 347 72.5H349C353.418 72.5 357 68.9183 357 64.5V59.5C357 55.0817 353.418 51.5 349 51.5Z" fill="#4F545C"/>
<path d="M156.5 133C156.5 131.067 158.067 129.5 160 129.5H166C167.933 129.5 169.5 131.067 169.5 133V140C169.5 140.828 168.828 141.5 168 141.5H158C157.172 141.5 156.5 140.828 156.5 140V133Z" fill="#72767D" stroke="#202225"/>
<path d="M178.5 128C178.5 126.067 180.067 124.5 182 124.5H192C193.933 124.5 195.5 126.067 195.5 128V138C195.5 139.933 193.933 141.5 192 141.5H182C180.067 141.5 178.5 139.933 178.5 138V128Z" fill="#72767D" stroke="#202225"/>
<path d="M196.5 114C196.5 112.067 198.067 110.5 200 110.5C201.933 110.5 203.5 112.067 203.5 114C203.5 115.933 201.933 117.5 200 117.5C198.067 117.5 196.5 115.933 196.5 114Z" stroke="#202225"/>
<path d="M12 155C12 153.067 13.567 151.5 15.5 151.5C17.433 151.5 19 153.067 19 155V156C19 156.828 18.3284 157.5 17.5 157.5H13.5C12.6716 157.5 12 156.828 12 156V155Z" stroke="#202225"/>
<path d="M0 156.5H8" stroke="#202225"/>
<rect x="65" y="158" width="315" height="1" fill="#202225"/>
<path d="M147.5 143C147.5 142.172 148.172 141.5 149 141.5H202C202.828 141.5 203.5 142.172 203.5 143V147C203.5 147.828 202.828 148.5 202 148.5H149C148.172 148.5 147.5 147.828 147.5 147V143Z" fill="#3E4148" stroke="#202225"/>
<path d="M151.5 148.5H158.5V157C158.5 157.828 157.828 158.5 157 158.5H153C152.172 158.5 151.5 157.828 151.5 157V148.5Z" fill="#4F545C" stroke="#202225"/>
<path d="M193.5 148.5H200.5V157C200.5 157.828 199.828 158.5 199 158.5H195C194.172 158.5 193.5 157.828 193.5 157V148.5Z" fill="#4F545C" stroke="#202225"/>
<path d="M97 144.1V150C97 154.418 100.582 158 105 158H121.5C123.709 158 125.5 156.209 125.5 154V152.5C125.5 150.291 123.709 148.5 121.5 148.5H116V147.9C116 141.604 110.896 136.5 104.6 136.5C100.403 136.5 97 139.903 97 144.1Z" fill="#4F545C" stroke="#202225"/>
<path d="M68 136.5C67.2 123.3 74.3334 115 78 112.5L118 124.5V142C118 150.837 110.837 158 102 158H72C69.7909 158 68 156.209 68 154V136.5Z" fill="#3E4148" stroke="#202225"/>
<path d="M64 144.1V150C64 154.418 67.5817 158 72 158H88.5C90.7091 158 92.5 156.209 92.5 154V152.5C92.5 150.291 90.7091 148.5 88.5 148.5H83V147.9C83 141.604 77.896 136.5 71.6 136.5C67.4026 136.5 64 139.903 64 144.1Z" fill="#4F545C" stroke="#202225"/>
<path d="M109.5 142.5L104 148" stroke="#202225"/>
<path d="M104 142.5L109.5 148" stroke="#202225"/>
<path d="M85 127.5C85 128.746 84.6766 129.961 84.0748 130.977C83.473 131.993 82.6226 132.758 81.6416 133.167C80.6607 133.577 79.5979 133.609 78.6009 133.26C77.6039 132.912 76.7221 132.199 76.078 131.222C75.4339 130.244 75.0594 129.05 75.0065 127.805C74.9536 126.561 75.225 125.327 75.783 124.276C76.3409 123.225 77.1578 122.409 78.1201 121.94C79.0824 121.472 80.1424 121.374 81.1529 121.662" stroke="#202225" stroke-linecap="round"/>
<path d="M127.5 81C126.7 85 123.5 84 122 83L108.5 74L117 60V68L126 64.5L126.5 73.5L134 70L129 79" stroke="#202225" stroke-linecap="round"/>
<path d="M123.921 81.2832L109.558 72.2033C101.19 66.9133 90.2115 68.541 83.7385 76.0312L78.6587 81.9092C68.9164 93.1825 71.6932 110.516 84.4696 118.182L94.1923 124.015C106.569 131.442 122.654 126.341 128.491 113.14L131.526 106.275C135.533 97.2111 132.298 86.579 123.921 81.2832Z" fill="#3E4148" stroke="#202225"/>
<circle cx="100" cy="94.5" r="5.5" stroke="#202225"/>
<path d="M135.221 109.875L118.526 99.0537C114.698 96.573 109.575 97.7892 107.27 101.725L105.448 104.838C102.145 110.481 103.968 117.73 109.547 121.14L112.89 123.183C120.413 127.78 130.239 125.425 134.86 117.916L136.452 115.328C137.591 113.477 137.044 111.056 135.221 109.875Z" fill="#3E4148" stroke="#202225"/>
<path d="M95.5 70.5L101.5 76.5L79.5 88.5L78.5 87.5C73.8056 82.8056 73.8056 75.1944 78.5 70.5C83.1944 65.8056 90.8056 65.8056 95.5 70.5Z" fill="#36393F"/>
<path d="M101.5 76.5L95.5 70.5C90.8056 65.8056 83.1944 65.8056 78.5 70.5V70.5C73.8056 75.1944 73.8056 82.8056 78.5 87.5L79.5 88.5" stroke="#202225"/>
<path d="M83.2271 85.9442C80.2982 83.0152 80.101 78.4637 82.7866 75.7781C85.4723 73.0924 90.0238 73.2897 92.9527 76.2186" stroke="#202225"/>
<path d="M37.9999 142C38.4999 143.5 40.4999 146 44.4999 144C45.3332 145.167 47.5999 147 49.9999 145V148.5L32.9999 158.5M32.9999 158.5C29.3332 158.5 22.9999 156.1 26.9999 146.5M32.9999 158.5C35.7998 149.7 30.1665 146.833 26.9999 146.5M26.9999 146.5L34.5 142.5" stroke="#202225" stroke-linecap="round"/>
<path d="M51.5 148H50C46.9624 148 44.5 150.462 44.5 153.5V154.8C44.5 155.739 45.2611 156.5 46.2 156.5H55.5C56.6046 156.5 57.5 155.605 57.5 154.5V154C57.5 153.172 56.8284 152.5 56 152.5C55.1716 152.5 54.5 151.828 54.5 151C54.5 149.343 53.1569 148 51.5 148Z" fill="#36393F" stroke="#202225" stroke-linecap="round"/>
</svg>
