<svg width="32" height="32" viewBox="0 0 32 32" fill="none" xmlns="http://www.w3.org/2000/svg">
<rect width="32" height="32" rx="16" fill="#757E8A"/>
<path d="M21.5447 10.9172C20.5249 10.4493 19.4313 10.1045 18.2879 9.90708C18.2671 9.90327 18.2463 9.91279 18.2356 9.93184C18.0949 10.182 17.9392 10.5083 17.8301 10.7648C16.6003 10.5807 15.3768 10.5807 14.1722 10.7648C14.0631 10.5026 13.9017 10.182 13.7604 9.93184C13.7497 9.91343 13.7289 9.9039 13.708 9.90708C12.5653 10.1039 11.4717 10.4486 10.4513 10.9172C10.4425 10.921 10.4349 10.9274 10.4299 10.9356C8.35559 14.0345 7.78737 17.0572 8.06612 20.0425C8.06738 20.0571 8.07558 20.0711 8.08693 20.08C9.45547 21.085 10.7811 21.6951 12.0822 22.0995C12.103 22.1059 12.1251 22.0983 12.1383 22.0811C12.4461 21.6609 12.7204 21.2177 12.9557 20.7517C12.9695 20.7244 12.9563 20.692 12.9279 20.6812C12.4928 20.5161 12.0784 20.3149 11.6798 20.0863C11.6483 20.0679 11.6458 20.0228 11.6748 20.0012C11.7586 19.9384 11.8425 19.873 11.9226 19.807C11.9371 19.7949 11.9573 19.7923 11.9744 19.8C14.5929 20.9955 17.4277 20.9955 20.0153 19.8C20.0323 19.7917 20.0525 19.7943 20.0677 19.8063C20.1478 19.8723 20.2316 19.9384 20.3161 20.0012C20.3451 20.0228 20.3433 20.0679 20.3117 20.0863C19.9131 20.3193 19.4988 20.5161 19.063 20.6806C19.0346 20.6914 19.022 20.7244 19.0359 20.7517C19.2762 21.217 19.5505 21.6602 19.8526 22.0805C19.8652 22.0983 19.8879 22.1059 19.9087 22.0995C21.2161 21.6951 22.5417 21.085 23.9103 20.08C23.9223 20.0711 23.9298 20.0577 23.9311 20.0431C24.2647 16.5919 23.3723 13.5939 21.5655 10.9362C21.5611 10.9274 21.5535 10.921 21.5447 10.9172Z" fill="white"/>
<path d="M11.9088 16.6121C11.9088 17.501 12.5583 18.2248 13.3467 18.2248C14.1476 18.2248 14.7846 17.501 14.7846 16.6121C14.7972 15.7296 14.1539 14.9995 13.3467 14.9995C12.5457 14.9995 11.9088 15.7233 11.9088 16.6121Z" fill="#757E8A"/>
<path d="M17.2253 16.6121C17.2253 17.501 17.8748 18.2248 18.6632 18.2248C19.4704 18.2248 20.1011 17.501 20.1011 16.6121C20.1137 15.7296 19.4704 14.9995 18.6632 14.9995C17.8622 14.9995 17.2253 15.7233 17.2253 16.6121Z" fill="#757E8A"/>
<rect x="21" y="21" width="10" height="10" rx="5" fill="#3BA55D" stroke="#292B2F" stroke-width="2"/>
</svg>
